<svg id="圖層_1" data-name="圖層 1" xmlns="http://www.w3.org/2000/svg" viewBox="0 0 150 300"><defs><style>.cls-1{fill:#534741;}.cls-2{fill:#736357;}</style></defs><title>logo-tmp</title><path class="cls-1" d="M69.74,88.36c0,2.75.07,11.07.07,12.86,0,.83-.74,1.15-1.8,1.15-.89,0-1.37-.26-1.37-1,0-1.54.32-7.65.38-13.76A24,24,0,0,1,61.23,95c-.13.1-.42-.16-.32-.29a38.91,38.91,0,0,0,5.57-13.4H63.63a8.36,8.36,0,0,0-1.66.19l-.36-1.19a7.5,7.5,0,0,0,2,.26H66.8V77.19a37.84,37.84,0,0,0-.16-4.1c3.77.35,4.25.55,4.25,1.06,0,.35-.35.64-1.15.93v5.5h.55c1.27-1.7,1.66-2,1.88-2s.58.25,1.73,1.34c.48.48.74.8.74,1s-.1.32-.42.32H69.74v3c3.07.93,4.67,2.37,4.67,4a1.47,1.47,0,0,1-1.47,1.63c-.54,0-1-.32-1.21-1.18a9.62,9.62,0,0,0-2-3.74Zm13.22-7a19.38,19.38,0,0,0,2.94,6.56,17,17,0,0,0,5.31,4.73c.13.1.13.32,0,.35-.77.1-1.54,1.06-2,2.24-.16.42-.32.55-.48.55s-.45-.26-.84-.64a19,19,0,0,1-3.48-5.7,38.79,38.79,0,0,1-1.92-7.07c.12,8.93.35,17.34.35,18.72,0,.89-.58,1.31-2,1.31-.93,0-1.38-.35-1.38-1.15,0-1.6.26-8.51.29-13.86a26.44,26.44,0,0,1-8.39,9.19c-.12.09-.41-.2-.31-.32a35.11,35.11,0,0,0,8-14.91H77.87a19,19,0,0,0-2.5.19L75,80.32a15.35,15.35,0,0,0,2.82.26h1.79V77.44a28.82,28.82,0,0,0-.26-4.35c3.62.29,4.32.48,4.32,1s-.32.61-1,.87v5.63h2.53c1.47-2,1.85-2.24,2.07-2.24s.61.26,2.08,1.57c.64.57.9.86.9,1.09s-.1.32-.42.32Z"/><path class="cls-1" d="M68,112.48H63.85a13,13,0,0,0-2,.2l-.36-1.19a11.74,11.74,0,0,0,2.37.26h8.35c1.25-1.63,1.64-1.89,1.86-1.89s.61.26,1.89,1.31c.54.48.8.77.8,1s-.1.32-.42.32H70.89v8.16h.39c1-1.63,1.34-1.88,1.57-1.88s.57.25,1.63,1.31c.41.45.67.77.67,1s-.1.32-.42.32H70.89v8.16c1.92-.51,3.78-1.09,5.25-1.63.16-.07.32.35.19.45-3.87,2.56-6.88,3.9-13.15,6-.06.8-.25,1.15-.64,1.15s-.93-1.08-1.66-4.09a20,20,0,0,0,2.11-.23v-11c0-.8-.06-1.66-.16-2.66,3.49.32,3.74.64,3.74,1s-.25.52-.83.77v11.42c.74-.15,1.51-.31,2.24-.48Zm19.58,4.32c-.7,4.32-1.72,8.58-4.22,12.26a21.78,21.78,0,0,0,7.87,4.7.19.19,0,0,1,0,.35c-1,.32-1.44.87-1.73,2.18-.16.7-.22.8-.51.8a4.45,4.45,0,0,1-1.76-.8A20.38,20.38,0,0,1,81.74,131c-2.62,2.88-6.21,4.9-11,6.37-.17,0-.33-.35-.2-.42,4.45-2.3,7.59-4.86,9.8-8.19a26,26,0,0,1-2.72-8.09,21.92,21.92,0,0,1-3.37,4.12c-.12.1-.54-.16-.44-.28A35.91,35.91,0,0,0,78,112.58a30.79,30.79,0,0,0,.42-4c3.51.8,4.35,1.12,4.35,1.6s-.32.58-1.09.74A45.75,45.75,0,0,1,80,116.07h6c1.57-1.92,1.95-2.18,2.18-2.18s.61.26,2.08,1.51c.64.57.89.86.89,1.08s-.09.32-.41.32Zm-7.9,0c-.41,1-.93,2-1.44,2.92a20.7,20.7,0,0,0,3.27,7.2A30.26,30.26,0,0,0,84.4,116.8Z"/><path class="cls-1" d="M67.85,165.76a5.36,5.36,0,0,0,1.86,2.15A9.91,9.91,0,0,0,74.6,161a15.51,15.51,0,0,0,.26-2.62c3.1.54,3.71.8,3.71,1.31,0,.35-.25.58-.89.8-1.06,4.13-3.27,6.43-7.39,7.75a4.68,4.68,0,0,0,.6.22,26.22,26.22,0,0,0,7.46.74,101.29,101.29,0,0,0,12.83-.77c.16,0,.16.25,0,.32A2,2,0,0,0,90,170.5c-.1,1-.16,1.09-.8,1.15-1.54.16-5.7.26-8.32.26-5.8,0-9.06-.45-11.14-1.95A8.11,8.11,0,0,1,67,165.57a24.9,24.9,0,0,1-3.39,5.06c.19,1.25-.07,1.53-.52,1.53s-1.15-1.15-2.36-4a11.94,11.94,0,0,0,2.3-1,13.24,13.24,0,0,0,1.89-1.35v-8.35H62.67a6,6,0,0,0-1.76.26l-.35-1.28a7.61,7.61,0,0,0,2.08.28h2c1.08-1.28,1.34-1.47,1.6-1.47s.57.19,1.79,1.12c.54.45.73.67.73.93s-.09.32-1,1Zm-1.24-15.32c-.74,0-1.12-.39-1.57-2A9.38,9.38,0,0,0,63,144.71c-.13-.13.1-.32.26-.29,3.74.93,5.12,2.46,5.12,4.1A1.75,1.75,0,0,1,66.61,150.44Zm13.5-3.75c1.15-1.31,1.41-1.5,1.66-1.5s.58.19,1.79,1.31c.55.48.74.74.74,1,0,.42-.32.61-1.34.77-1.47,1.5-2.12,2.18-2.95,2.88H85.2c1-1.22,1.28-1.41,1.53-1.41s.58.19,1.7,1.09c.48.42.67.64.67.9s-.1.38-.74.86v.86c0,2.21.1,4.1.1,4.61,0,.71-.64,1.09-1.66,1.09s-1.28-.26-1.28-.93v-.54H82.64v6.49c0,.71.32.87,1.85.87,1.28,0,2-.13,2.56-.83a13.55,13.55,0,0,0,1.41-3.2c.06-.17.38-.1.38.06-.16,1.66-.25,2.53-.25,2.82s0,.41.64.7a1.07,1.07,0,0,1,.64,1c0,.64-.42,1.12-1.31,1.44a14.1,14.1,0,0,1-4.1.45c-3.68,0-4.61-.51-4.61-2.72,0-.93,0-2,0-3.84v-3.26H73.65v.41c0,.71-.64,1.12-1.64,1.12-.83,0-1.24-.32-1.24-1s.09-1.53.09-4.64c0-.48,0-1,0-1.44a26.36,26.36,0,0,1-2.66,1.8c-.12.09-.41-.13-.28-.26a26.75,26.75,0,0,0,5-7.07,15.19,15.19,0,0,0,1.28-3.71c3.07.86,3.9,1.24,3.9,1.6s-.25.54-1.31.73c-.26.48-.54,1-.86,1.44Zm-4.71.74a20.14,20.14,0,0,1-2.78,3.2,9.8,9.8,0,0,1,1.06.51h5a20.94,20.94,0,0,0,1.57-3.71Zm2.5,9.5v-5.05H73.65v5.05Zm7.62-5.05H80.68v5.05h4.84Z"/><polygon class="cls-1" points="26.52 175.15 26.52 77.71 44.83 77.71 44.83 77.21 26.03 77.21 26.03 175.65 44.83 175.65 44.83 175.15 26.52 175.15"/><polygon class="cls-1" points="30.52 180.15 30.52 82.71 48.83 82.71 48.83 82.21 30.03 82.21 30.03 180.65 48.83 180.65 48.83 180.15 30.52 180.15"/><polygon class="cls-1" points="105.67 77.21 105.67 77.71 123.97 77.71 123.97 175.15 105.67 175.15 105.67 175.65 124.47 175.65 124.47 77.21 105.67 77.21"/><polygon class="cls-1" points="101.67 73.21 101.67 73.71 119.97 73.71 119.97 171.15 101.67 171.15 101.67 171.65 120.47 171.65 120.47 73.21 101.67 73.21"/><rect class="cls-1" x="104.93" y="28.49" width="0.49" height="97.45"/><rect class="cls-1" x="44.52" y="148.92" width="0.62" height="113.03"/><path class="cls-1" d="M73.15,216.39c0,.08,0,.12-.12.14s-.15,0-.2-.08a3.58,3.58,0,0,0-1-1.44,2.81,2.81,0,0,0-1.61-.52c-1.79,0-3.1,1.6-3.1,4,0,2.17,1.34,3.84,3.18,3.84a3.19,3.19,0,0,0,2.95-1.65c.05-.06.1-.09.24,0a.15.15,0,0,1,.09.22,3.72,3.72,0,0,1-3.45,2.13,4.49,4.49,0,0,1,0-9,6.41,6.41,0,0,1,1.46.18,2.69,2.69,0,0,0,1.33.14C73,215,73.07,215.76,73.15,216.39Z"/><path class="cls-1" d="M76.56,220.68c0,1.19,0,1.37.12,1.61s.5.22,1,.27c.09,0,.12,0,.12.15s0,.15-.12.15c-.52,0-1.15-.05-1.65-.05s-1.09,0-1.57.05c-.07,0-.09,0-.09-.14s0-.15.09-.16c.43-.05.75-.05.88-.27a3.84,3.84,0,0,0,.15-1.61v-4.26c0-1.14,0-1.28-.14-1.54s-.47-.23-.94-.28c-.08,0-.09,0-.09-.14s0-.2.09-.2c.51,0,1.14.07,1.62.07s1.11,0,1.58-.07c.09,0,.13,0,.13.2s0,.13-.12.14c-.42.05-.75.05-.89.28a4.29,4.29,0,0,0-.13,1.54v1.67c.8,0,1.51,0,2.26,0s1.44,0,2.21,0v-1.67c0-1.14,0-1.29-.13-1.54s-.49-.23-.94-.28c-.08,0-.1,0-.1-.14s0-.2.1-.2c.51,0,1.16.07,1.65.07s1.08,0,1.56-.07c.1,0,.13,0,.13.18s0,.15-.12.16c-.45.05-.75.05-.88.28a4,4,0,0,0-.15,1.54v4.26c0,1.19,0,1.36.14,1.61s.49.22,1,.27c.08,0,.1,0,.1.16s0,.14-.1.14c-.54,0-1.16-.05-1.64-.05s-1.12,0-1.59.05c-.08,0-.1,0-.1-.14s0-.15.1-.16c.44-.05.74-.05.87-.27a4.5,4.5,0,0,0,.14-1.61v-2.06c-.77-.05-1.46-.05-2.21-.05s-1.46,0-2.26.05Z"/><path class="cls-1" d="M86.6,220.68a3.43,3.43,0,0,0,.17,1.44c.19.31.65.32,1.19.32A3.14,3.14,0,0,0,90,222a3.73,3.73,0,0,0,.93-1.21c0-.07.06-.11.18-.07s.14.09.12.17a11.77,11.77,0,0,1-.63,2c-1,0-2-.05-3-.05s-2.12,0-3.14.05c-.07,0-.1,0-.1-.15s0-.15.1-.16c.42-.05.71-.06.85-.29a4.28,4.28,0,0,0,.14-1.58v-4.26c0-1.14,0-1.28-.13-1.54s-.46-.23-.92-.28c-.09,0-.11,0-.11-.14s0-.2.11-.2c1,.06,2.06.06,3,.06s1.93,0,3-.06c0,.62.12,1.35.2,2,0,.07,0,.12-.11.14s-.18,0-.2-.08a2.67,2.67,0,0,0-.78-1.19,2.64,2.64,0,0,0-1.79-.38c-.45,0-.86,0-1,.3a3.78,3.78,0,0,0-.12,1.42v1.72h.75a2.85,2.85,0,0,0,1.54-.25,1.07,1.07,0,0,0,.4-.78c0-.07,0-.11.14-.11s.17,0,.17.11c0,.42,0,.8,0,1.21s0,.92,0,1.35c0,.09,0,.12-.17.12s-.13,0-.14-.12a1.4,1.4,0,0,0-.42-.88,3.23,3.23,0,0,0-1.52-.26c-.27,0-.56,0-.75,0Z"/><path class="cls-1" d="M93.74,215.53l.05,5.16a3.53,3.53,0,0,0,.22,1.55c.15.24.51.27.91.32.08,0,.09,0,.09.15s0,.14-.09.14c-.48,0-1,0-1.38,0s-1,0-1.39,0c-.1,0-.12,0-.12-.13s0-.15.11-.16c.36-.05.67-.08.82-.33a3.43,3.43,0,0,0,.24-1.54l.07-4.28a2.74,2.74,0,0,0-.19-1.45c-.15-.22-.55-.3-1-.35-.1,0-.12,0-.12-.15s0-.2.12-.2c.41,0,.85,0,1.15,0h1.2a16,16,0,0,0,.92,1.45l2.74,4c.41.59.74,1.1,1.11,1.68v-5a3.32,3.32,0,0,0-.24-1.5c-.14-.24-.5-.26-.89-.31-.09,0-.12,0-.12-.16s0-.18.11-.18c.45,0,.93.05,1.36.05s1,0,1.35-.05c.1,0,.12,0,.12.18s0,.15-.12.16c-.36.05-.66.07-.8.31a3.56,3.56,0,0,0-.23,1.5l-.07,4.28c0,.81,0,1.39,0,2-.58.32-.61.33-.64.33A.11.11,0,0,1,99,223c-.37-.61-.65-1-1.37-2.06l-3.7-5.4Z"/><path class="cls-1" d="M109.42,216.36c0,.09,0,.13-.13.15s-.16,0-.18-.08a3.36,3.36,0,0,0-1-1.41,2.71,2.71,0,0,0-1.66-.54c-1.8,0-3.21,1.68-3.21,4.05s1.4,4.09,3.38,4.09a3,3,0,0,0,2-.69,5,5,0,0,0,.06-.81c0-1.2,0-1.32-.14-1.58s-.47-.25-.93-.3c-.08,0-.11,0-.11-.17s0-.14.11-.14c.49,0,1.09,0,1.56,0s.94,0,1.44,0c.08,0,.11,0,.11.14s0,.16-.11.17c-.41,0-.61,0-.76.3a3.75,3.75,0,0,0-.15,1.42,15.72,15.72,0,0,0,.07,1.73c0,.05,0,.09-.12.08a4.59,4.59,0,0,0-.62,0,25.73,25.73,0,0,1-2.64.32,4.28,4.28,0,0,1-4.5-4.49,4.38,4.38,0,0,1,4.53-4.49,5.62,5.62,0,0,1,1.48.21,3,3,0,0,0,1.32.12C109.25,215,109.33,215.74,109.42,216.36Z"/><path class="cls-1" d="M114,219.4c0-.17,0-.34,0-.5-.18-.28-.31-.52-.49-.81l-1.12-1.85a8.63,8.63,0,0,0-.88-1.34,1.11,1.11,0,0,0-.82-.31c-.07,0-.1,0-.1-.15s0-.18.1-.18c.52,0,1.08.06,1.57.06s1.08,0,1.57-.06c.07,0,.1,0,.1.18s0,.14-.1.15c-.39,0-.72.07-.77.3s.08.45.34.93l1.09,1.85c.17.26.28.44.42.67.12-.19.23-.37.37-.63l1-1.8c.32-.57.39-.75.31-1s-.38-.28-.8-.32c-.09,0-.11,0-.11-.15s0-.18.12-.18c.44,0,1,.06,1.43.06s.82,0,1.28-.06c.07,0,.09,0,.09.18s0,.14-.1.15a1.58,1.58,0,0,0-.84.32,4.8,4.8,0,0,0-.91,1.26L115.58,218c-.19.32-.34.54-.5.82,0,.15,0,.43,0,.61v1.26c0,1.2,0,1.35.12,1.59s.52.25,1,.3c.07,0,.09,0,.09.16s0,.14-.09.14c-.55,0-1.17-.05-1.66-.05s-1.08,0-1.54.05c-.11,0-.12,0-.12-.14s0-.15.12-.16c.4-.05.72-.06.85-.3a4.09,4.09,0,0,0,.14-1.59Z"/><path class="cls-1" d="M121.2,220.68c0,1.19,0,1.36.13,1.58s.49.24,1,.29c.08,0,.11,0,.11.16s0,.15-.12.15c-.52,0-1.14-.05-1.65-.05s-1.08,0-1.54.05c-.08,0-.1,0-.1-.15s0-.15.1-.16c.4-.05.71-.05.86-.29a3.63,3.63,0,0,0,.15-1.58v-4.26c0-1.14,0-1.27-.14-1.53s-.48-.24-.94-.29c-.07,0-.09,0-.09-.16s0-.18.09-.18c.51,0,1.14.07,1.61.07s1.12,0,1.6-.07c.08,0,.11,0,.11.2s0,.13-.11.14c-.42.05-.73.06-.88.29a4,4,0,0,0-.14,1.53Z"/><path class="cls-1" d="M103.79,237.5a3.42,3.42,0,0,0,.16,1.44c.2.31.63.32,1.17.32a3.28,3.28,0,0,0,2.08-.5,3.64,3.64,0,0,0,.9-1.2c0-.09.06-.11.19-.07s.15.09.13.16a16.41,16.41,0,0,1-.63,2c-1,0-2.06-.05-3-.05s-2.11,0-3.13.05c-.08,0-.1,0-.1-.16s0-.14.1-.15c.42-.05.74-.06.88-.29a3.82,3.82,0,0,0,.15-1.58v-4.26c0-1.14,0-1.28-.13-1.53s-.47-.25-.93-.29c-.08,0-.1,0-.1-.15s0-.19.1-.19c.49,0,1.11.07,1.61.07s1.1,0,1.58-.07c.1,0,.12,0,.12.19s0,.14-.12.15c-.4,0-.73.06-.86.29a4.14,4.14,0,0,0-.14,1.53Z"/><path class="cls-1" d="M111.5,237.5c0,1.19,0,1.35.13,1.58s.49.24,1,.29c.09,0,.11,0,.11.15s0,.16-.12.16c-.52,0-1.14-.05-1.64-.05s-1.08,0-1.55.05c-.07,0-.1,0-.1-.16s0-.14.1-.15c.41-.05.72-.05.86-.29a3.58,3.58,0,0,0,.16-1.58v-4.26c0-1.14,0-1.27-.15-1.53s-.48-.25-.93-.29c-.07,0-.1,0-.1-.16s0-.18.1-.18c.5,0,1.14.07,1.61.07s1.11,0,1.59-.07c.09,0,.11,0,.11.19s0,.14-.11.15c-.42,0-.73.06-.87.29a3.72,3.72,0,0,0-.15,1.53Z"/><path class="cls-1" d="M115.32,232.35l.05,5.16a3.73,3.73,0,0,0,.21,1.55c.16.24.52.27.91.32.09,0,.1,0,.1.14s0,.15-.1.15c-.48,0-.94,0-1.38,0s-1,0-1.39,0c-.09,0-.12,0-.12-.13s0-.15.11-.16c.36,0,.67-.08.83-.34a3.35,3.35,0,0,0,.24-1.53l.07-4.28a3,3,0,0,0-.19-1.45,1.47,1.47,0,0,0-1-.35c-.09,0-.12,0-.12-.16s0-.19.12-.19c.41,0,.86,0,1.16,0H116a15.18,15.18,0,0,0,.92,1.45l2.73,4c.41.59.75,1.09,1.12,1.68v-5a3.43,3.43,0,0,0-.24-1.5c-.15-.24-.51-.27-.89-.31-.1,0-.12,0-.12-.16s0-.18.11-.18c.44,0,.92,0,1.35,0s1,0,1.36,0c.09,0,.12,0,.12.18s0,.15-.12.16c-.36,0-.66.07-.81.31a3.77,3.77,0,0,0-.22,1.5l-.08,4.28c0,.8,0,1.39,0,2-.59.32-.61.33-.65.33a.1.1,0,0,1-.09-.06c-.38-.61-.65-1-1.37-2.06l-3.71-5.4Z"/><rect class="cls-1" x="25.53" y="246.19" width="98.44" height="0.49"/><path class="cls-1" d="M25.57,246.22c0,.16,0,.31,0,.46l-.06-.05,98.44-.35-.4.4v-.49l.4.4-12.26.09H99.45l-24.51,0-24.62-.2Zm-.07-.07L37.69,246,50,245.92l24.6-.19,24.71,0h12.35l12.35.09h.41v1.29H124l-98.44-.34h-.05v-.06Z"/><rect class="cls-1" x="35.09" y="198.52" width="20.09" height="20.09"/><rect class="cls-2" x="31.09" y="203.52" width="20.09" height="20.09"/></svg>